# xmcd
#
# Track frame offsets: 
#        182
#        15112
#        29777
#        52262
#        63050
#        98762
#        111717
#        129362
#        142812
#
# Disc length: 2697 seconds
#
# Revision: 7
# Processed by: cddbd v1.5.2PL0 Copyright (c) Steve Scherf et al.
# Submitted via: ExactAudioCopy v1.0b3
#
DISCID=760a8709
DTITLE=The Butterfield Blues Band - East-West
DYEAR=1987
DGENRE=Blues/Rock
TTITLE0=Walkin' Blues
TTITLE1=Get Out Of My Life, Woman
TTITLE2=I Got A Mind To Give Up Living
TTITLE3=All These Blues
TTITLE4=Work Song
TTITLE5=Mary, Mary
TTITLE6=Two Trains Running
TTITLE7=Never Say No
TTITLE8=East-West
EXTD=
EXTT0=
EXTT1=
EXTT2=
EXTT3=
EXTT4=
EXTT5=
EXTT6=
EXTT7=
EXTT8=
PLAYORDER=
